<svg width="27.567383" height="27.818176" viewBox="0 0 27.5674 27.8182" fill="none" xmlns="http://www.w3.org/2000/svg" xmlns:xlink="http://www.w3.org/1999/xlink">
	<desc>
			Created with Pixso.
	</desc>
	<defs/>
	<ellipse id="Ellipse 12" cx="13.783691" cy="13.909088" rx="13.283714" ry="13.409091" stroke="#FFFFFF" stroke-opacity="1.000000" stroke-width="1.000000"/>
	<path id="Vector" d="M10.65 6.04C11.5 6 11.77 6 13.92 6C16.08 6 16.35 6 17.19 6.04C18.04 6.08 18.61 6.22 19.12 6.41C19.64 6.62 20.12 6.93 20.52 7.34C20.92 7.74 21.24 8.22 21.43 8.75C21.63 9.26 21.76 9.85 21.8 10.7C21.84 11.55 21.85 11.82 21.85 14C21.85 16.17 21.84 16.44 21.8 17.29C21.77 18.14 21.63 18.73 21.43 19.24C21.24 19.77 20.92 20.25 20.52 20.65C20.12 21.06 19.64 21.37 19.12 21.57C18.61 21.77 18.04 21.91 17.19 21.95C16.35 21.99 16.08 22 13.92 22C11.77 22 11.5 21.99 10.65 21.95C9.81 21.91 9.23 21.77 8.73 21.57C8.2 21.37 7.72 21.06 7.33 20.65C6.92 20.25 6.61 19.77 6.41 19.24C6.22 18.73 6.08 18.14 6.04 17.29C6 16.44 6 16.17 6 14C6 11.82 6 11.55 6.04 10.7C6.08 9.85 6.22 9.26 6.41 8.75C6.61 8.22 6.92 7.74 7.33 7.34C7.72 6.93 8.2 6.62 8.73 6.41C9.23 6.22 9.81 6.08 10.65 6.04L10.65 6.04ZM17.13 7.48C16.29 7.44 16.04 7.44 13.92 7.44C11.81 7.44 11.56 7.44 10.72 7.48C9.95 7.52 9.53 7.65 9.25 7.76C8.88 7.9 8.61 8.08 8.34 8.36C8.07 8.61 7.87 8.93 7.74 9.28C7.63 9.56 7.5 9.98 7.47 10.76C7.43 11.61 7.42 11.86 7.42 14C7.42 16.13 7.43 16.38 7.47 17.23C7.5 18.01 7.63 18.43 7.74 18.71C7.87 19.06 8.07 19.38 8.34 19.63C8.59 19.9 8.9 20.1 9.25 20.23C9.53 20.34 9.95 20.47 10.72 20.51C11.56 20.55 11.81 20.55 13.92 20.55C16.04 20.55 16.29 20.55 17.13 20.51C17.9 20.47 18.32 20.34 18.6 20.23C18.97 20.09 19.23 19.91 19.51 19.63C19.77 19.38 19.98 19.06 20.1 18.71C20.21 18.43 20.34 18.01 20.38 17.23C20.41 16.38 20.42 16.13 20.42 14C20.42 11.86 20.41 11.61 20.38 10.76C20.34 9.98 20.21 9.56 20.1 9.28C19.96 8.9 19.79 8.64 19.51 8.36C19.25 8.09 18.94 7.89 18.6 7.76C18.32 7.65 17.9 7.52 17.13 7.48ZM12.91 16.46C13.48 16.7 14.11 16.73 14.69 16.55C15.28 16.37 15.78 15.99 16.13 15.48C16.47 14.97 16.62 14.35 16.56 13.73C16.5 13.12 16.23 12.54 15.79 12.11C15.52 11.83 15.18 11.62 14.81 11.48C14.45 11.35 14.05 11.3 13.66 11.34C13.27 11.38 12.9 11.5 12.56 11.71C12.23 11.91 11.94 12.18 11.72 12.51C11.51 12.84 11.36 13.21 11.31 13.6C11.25 13.99 11.28 14.39 11.39 14.77C11.51 15.15 11.7 15.5 11.96 15.79C12.23 16.08 12.55 16.31 12.91 16.46ZM11.04 11.09C11.42 10.71 11.87 10.4 12.36 10.2C12.86 9.99 13.39 9.88 13.92 9.88C14.46 9.88 14.99 9.99 15.48 10.2C15.98 10.4 16.43 10.71 16.8 11.09C17.18 11.47 17.48 11.92 17.69 12.42C17.89 12.92 18 13.46 18 14C18 14.54 17.89 15.07 17.69 15.57C17.48 16.07 17.18 16.52 16.8 16.9C16.04 17.67 15 18.11 13.92 18.11C12.84 18.11 11.81 17.67 11.04 16.9C10.28 16.13 9.85 15.09 9.85 14C9.85 12.9 10.28 11.86 11.04 11.09ZM18.9 10.5C19 10.41 19.07 10.3 19.12 10.18C19.17 10.06 19.2 9.93 19.2 9.8C19.21 9.67 19.18 9.54 19.13 9.42C19.08 9.3 19.01 9.19 18.92 9.1C18.83 9.01 18.72 8.94 18.6 8.89C18.48 8.84 18.36 8.81 18.23 8.82C18.1 8.82 17.97 8.85 17.85 8.9C17.73 8.95 17.63 9.03 17.54 9.12C17.37 9.3 17.27 9.55 17.28 9.8C17.28 10.06 17.38 10.3 17.56 10.48C17.74 10.65 17.98 10.76 18.23 10.76C18.48 10.76 18.72 10.67 18.9 10.5Z" fill="#FFFFFF" fill-opacity="1.000000" fill-rule="evenodd"/>
</svg>
