<svg width="189.884766" height="44.838867" viewBox="0 0 189.885 44.8389" fill="none" xmlns="http://www.w3.org/2000/svg" xmlns:xlink="http://www.w3.org/1999/xlink">
	<desc>
			Created with Pixso.
	</desc>
	<defs/>
	<path id="LOGO" d="M60.01 0C71.31 0 79.66 8.46 79.66 22.42C79.66 36.37 71.31 44.83 60.01 44.83C48.68 44.83 40.34 36.35 40.34 22.42C40.34 8.46 48.68 0 60.01 0ZM133.72 14.38L126.97 14.38C125.32 9.21 121.41 6.02 115.61 6.02C108.22 6.02 102.58 11.83 102.58 22.39C102.58 33 108.17 38.83 115.86 38.83C122.86 38.83 127.51 34.37 127.65 27.34L116.87 27.34L116.87 21.91L134.03 21.91L134.03 26.87C134.03 37.89 126.45 44.83 115.86 44.83C104.04 44.83 96.03 36.25 96.03 22.44C96.03 8.51 104.27 0 115.57 0C124.99 0 132.25 5.88 133.72 14.38ZM170.24 0C181.53 0 189.88 8.46 189.88 22.42C189.88 36.37 181.53 44.83 170.24 44.83C158.9 44.83 150.56 36.35 150.56 22.42C150.56 8.46 158.9 0 170.24 0ZM26.36 44.23L0 44.23L0 0.6L6.59 0.6L6.59 38.56L26.36 38.56L26.36 44.23ZM60.01 38.83C67.51 38.83 73.14 33.04 73.14 22.42C73.14 11.79 67.51 6.02 60.01 6.02C52.48 6.02 46.89 11.79 46.89 22.42C46.89 33.04 52.48 38.83 60.01 38.83ZM170.24 38.83C177.74 38.83 183.36 33.04 183.36 22.42C183.36 11.79 177.74 6.02 170.24 6.02C162.71 6.02 157.11 11.79 157.11 22.42C157.11 33.04 162.71 38.83 170.24 38.83Z" fill="#FFFFFF" fill-opacity="1.000000" fill-rule="evenodd"/>
</svg>
